/* XPM */
static char * door_closed_xpm[] = {
"32 32 221 2",
"  	c #2F2630",
". 	c #976D6D",
"+ 	c #976E6E",
"@ 	c #986F6F",
"# 	c #6D5466",
"$ 	c #6D5567",
"% 	c #997070",
"& 	c #6E5668",
"* 	c #997171",
"= 	c #997272",
"- 	c #3C353D",
"; 	c #987070",
"> 	c #6C5466",
", 	c #312832",
"' 	c #302731",
") 	c #6B5265",
"! 	c #6C5365",
"~ 	c #6D5566",
"{ 	c #6E5667",
"] 	c #6F5768",
"^ 	c #6F5869",
"/ 	c #70596A",
"( 	c #9A7373",
"_ 	c #3F3840",
": 	c #6C5567",
"< 	c #715B6B",
"[ 	c #715A6B",
"} 	c #725B6C",
"| 	c #9B7575",
"1 	c #423C43",
"2 	c #715A6A",
"3 	c #6E5869",
"4 	c #6E6070",
"5 	c #6D5869",
"6 	c #6B5264",
"7 	c #6F5769",
"8 	c #705869",
"9 	c #715E6E",
"0 	c #736574",
"a 	c #735E6D",
"b 	c #735D6D",
"c 	c #745E6E",
"d 	c #9C7777",
"e 	c #463F46",
"f 	c #735C6C",
"g 	c #705C6D",
"h 	c #706C7A",
"i 	c #322933",
"j 	c #725C6D",
"k 	c #746775",
"l 	c #76727F",
"m 	c #746472",
"n 	c #755F6F",
"o 	c #75606F",
"p 	c #766070",
"q 	c #49434A",
"r 	c #9E7979",
"s 	c #745F6E",
"t 	c #705D6D",
"u 	c #332A34",
"v 	c #6F596A",
"w 	c #725C6C",
"x 	c #74606F",
"y 	c #756473",
"z 	c #766170",
"A 	c #776271",
"B 	c #776272",
"C 	c #786372",
"D 	c #4D474D",
"E 	c #9F7B7B",
"F 	c #342C35",
"G 	c #716070",
"H 	c #736A78",
"I 	c #725F6F",
"J 	c #796473",
"K 	c #796574",
"L 	c #A07C7C",
"M 	c #504A50",
"N 	c #7A6674",
"O 	c #352D36",
"P 	c #6E5567",
"Q 	c #726171",
"R 	c #746B79",
"S 	c #736070",
"T 	c #7A6574",
"U 	c #7A6675",
"V 	c #7B6776",
"W 	c #A17E7E",
"X 	c #534D53",
"Y 	c #7C6876",
"Z 	c #362E37",
"` 	c #73606F",
" .	c #7B6876",
"..	c #7C6977",
"+.	c #7D6977",
"@.	c #7D6A78",
"#.	c #555056",
"$.	c #725B6B",
"%.	c #372F38",
"&.	c #6E5768",
"*.	c #7E6B79",
"=.	c #7F6C79",
"-.	c #585358",
";.	c #7F6C7A",
">.	c #7D6C79",
",.	c #7D6B78",
"'.	c #383039",
").	c #776171",
"!.	c #786473",
"~.	c #7E6B78",
"{.	c #7F6D7A",
"].	c #806D7B",
"^.	c #5A555A",
"/.	c #806E7B",
"(.	c #7F6F7B",
"_.	c #807581",
":.	c #7F7480",
"<.	c #39313A",
"[.	c #7B6775",
"}.	c #7E6A78",
"|.	c #806D7A",
"1.	c #816F7C",
"2.	c #5B575C",
"3.	c #A58484",
"4.	c #80707C",
"5.	c #817682",
"6.	c #7E6C79",
"7.	c #3A323B",
"8.	c #816E7B",
"9.	c #5D585D",
"0.	c #82707D",
"a.	c #81707C",
"b.	c #806F7B",
"c.	c #3B333B",
"d.	c #A68585",
"e.	c #5E595E",
"f.	c #3B333C",
"g.	c #3B343C",
"h.	c #9D7878",
"i.	c #9E7A7A",
"j.	c #796573",
"k.	c #A27F7F",
"l.	c #A38080",
"m.	c #816E7C",
"n.	c #A58585",
"o.	c #5E595F",
"p.	c #5F5A5F",
"q.	c #A48383",
"r.	c #A38282",
"s.	c #9F7C7C",
"t.	c #9C7676",
"u.	c #9B7474",
"v.	c #3E373F",
"w.	c #413A42",
"x.	c #443E45",
"y.	c #474148",
"z.	c #4B454B",
"A.	c #4E494F",
"B.	c #514C52",
"C.	c #544F55",
"D.	c #575157",
"E.	c #595459",
"F.	c #5B565B",
"G.	c #5C575D",
"H.	c #5D595E",
"I.	c #5E5A5F",
"J.	c #5F5A60",
"K.	c #5C575C",
"L.	c #5D585E",
"M.	c #826F7D",
"N.	c #58525D",
"O.	c #A38181",
"P.	c #A48282",
"Q.	c #83717E",
"R.	c #3D363E",
"S.	c #544E5A",
"T.	c #5A545F",
"U.	c #534D59",
"V.	c #5B5561",
"W.	c #9A7272",
"X.	c #524C58",
"Y.	c #7A6977",
"Z.	c #4E4755",
"`.	c #776675",
" +	c #7B7481",
".+	c #7A6A78",
"++	c #746271",
"@+	c #72606F",
"#+	c #4B4451",
"$+	c #766473",
"%+	c #797380",
"&+	c #796876",
"*+	c #A28080",
"=+	c #746371",
"-+	c #756F7C",
";+	c #746D7A",
">+	c #976F6F",
",+	c #9F7A7A",
"'+	c #705B6C",
")+	c #715C6D",
"!+	c #756070",
"~+	c #756674",
"{+	c #6E586A",
"]+	c #706373",
"^+	c #716473",
"/+	c #746473",
"(+	c #767581",
"_+	c #746F7C",
":+	c #6D5769",
"<+	c #6F6271",
"[+	c #706372",
"}+	c #6F5A6B",
"|+	c #725F70",
"1+	c #736E7B",
"2+	c #726270",
"3+	c #6D5768",
"4+	c #2F2530",
"5+	c #352C36",
"6+	c #362D37",
"7+	c #383038",
"8+	c #39323A",
"  . . + + @ @ # $ % & * = = - - - - = = * * % ; # > @ + + , '   ",
". . + ) ! > ~ { & ] ^ / / / ( _ _ ( ( / / ^ ] & { ~ : ! ) + , ' ",
". + ) ! # $ { ] ^ / < [ } } | 1 | | } } [ 2 / ^ ] 3 4 5 ! ) + , ",
"+ 6 ! # $ & 7 8 / 9 0 a b c d e d c c b f } [ / 8 g h 4 $ ! + i ",
"+ ! # $ & ^ / [ j k l m n o p q r p o n s c b } [ / t 3 $ # ! u ",
"! > ~ & v g [ w b x y z A B C D E C B A z n c b w [ / ^ & ~ @ F ",
"@ # { ^ G H I b n p A C J K L M N N K J C A p n b w [ / ] { ; O ",
"> P ] / Q R S n z B J T U V W X Y Y V U T J B z n b w [ 8 ] P Z ",
"~ { 7 / w ` s p B J U  ...+.@.#.@.@.+... .U J B p s b $./ 7 { %.",
"; &.8 [ w c p B J U Y +.@.*.=.-.;.=.*.>.,.Y U J B p c w [ 8 * '.",
"{ 7 / $.b n ).!.N Y +.~.=.{.].^./.].(._.:.,.Y N !.).n b $./ = <.",
"& ^ [ w c p C K [...}.=.|./.1.2.3.1.4.5._.6...[.K C p c w [ ^ 7.",
"* 8 [ b s z C N Y @.=.|.8.1.3.9.3.0.1.a.b.=.@.Y N C z s b [ 8 c.",
"* 8 [ b n ).J U ..~.;./.1.0.d.e.e.d.3.1./.;.~...U J ).n b [ ( f.",
"g.( $.b h.i.j.[.k.l.|.m.3.n.o.p.p.o.n.3.q.r.l.+.[.s.A o t.u.v.g.",
"g.v.w.x.y.z.A.B.C.D.E.F.G.H.I.J.J.I.H.G.F.E.D.C.B.A.z.y.x.w.v.g.",
"g.( u.b h.i.A.[.k.l.E.F.K.L.o.p.p.d.n.M.m.r.*.+.[.j.A h.t.u.v.g.",
"* 8 [ b n ).N.U ..~.O.P.1.3.e.e.d.Q.0.1./.;.~...U J ).n b u.R.f.",
"* 8 [ b s S.C T.Y @.=.|.8.1.3.9.0.0.1.8.|.=.@.Y N C z s b [ ( c.",
"& ^ [ w c U.C K V...}.=.|./.q.2.1.1./.|.=.}...[.K C p c w [ W.7.",
"{ 7 / $.b X.).!.Y.Y +.~.=.{.].^.P.].{.=.~.+.Y N !.).n b $./ = <.",
"$ &.8 [ Z.c p `. +.+Y +.@.*.=.-.O.=.*.@.+.Y U J B p ++@+[ 8 * '.",
"~ { 7 #+$.b s $+%+&+U  ...+.*+#.@.@.+... .U J B p =+-+;+t 7 * %.",
"> P ] 8 [ w b n $+B J T U V Y X Y Y V U T J B z n b @+9 8 ] % Z ",
"! # { ] / [ w b n p A C J K N M N N K J C A p n b w [ / ] { # O ",
">+> ~ & ^ / [ w b c n z A B ,+D D ,+B A z n c b w [ / ^ & ~ > F ",
"+ ! # $ & ^ '+)+} b c s n o h.q q h.o !+~+++b } [ / ^ & $ # @ u ",
"i + ! # $ {+]+^+'+[ } f b c d e e c c /+(+_+9 / 8 7 & $ # ! + i ",
", + ) ! # :+<+[+}+/ 2 [ } | | 1 1 w } |+1+2+/ ^ ] { $ # ! ) + , ",
"' . 6 ) ! > 3+3 & ] ^ / ( ( ( _ _ ( / / t ^ ] & { ~ > ! ) 6 . ' ",
"  ' . + + @ > # ; % * * = = - - - W.= ] * & % $ ; @ ! + + . '   ",
"4+  ' , i u F 5+6+%.7+'.<.8+7.7.7.7.8+<.'.7+%.6+5+F u i , '   4+"};
