/* XPM */
static char *assechart_36[] = {
/* columns rows colors chars-per-pixel */
"32 32 225 2 ",
"   c #2E242F",
".  c #966C6C",
"X  c #694F62",
"o  c #111616",
"O  c #253131",
"+  c #2F3E3E",
"@  c black",
"#  c #EEF2F2",
"$  c #3E3546",
"%  c #7D1414",
"&  c #2B272D",
"*  c #393030",
"=  c #1A1A1D",
"-  c #393A40",
";  c #404349",
":  c #4E4C4C",
">  c #2F363A",
",  c #4A3B47",
"<  c #241F26",
"1  c #1F181D",
"2  c #0E0B0E",
"3  c #514551",
"4  c #554955",
"5  c #2E2D34",
"6  c #594353",
"7  c #2D2020",
"8  c #443340",
"9  c #1E171F",
"0  c #624646",
"q  c #D4CACA",
"w  c #805C5C",
"e  c #271F28",
"r  c #474343",
"t  c #6F5757",
"y  c #684E4E",
"u  c #725C5C",
"i  c #282D30",
"p  c #2B2930",
"a  c #010101",
"s  c #121818",
"d  c #6A5063",
"f  c #2F2530",
"g  c #312833",
"h  c #362D37",
"j  c #372F39",
"k  c #302631",
"l  c #A17D7D",
"z  c #AA8B8B",
"x  c #B09393",
"c  c #6F5668",
"v  c #966D6D",
"b  c #976E6E",
"n  c #987070",
"m  c #332A34",
"M  c #B39999",
"N  c #958592",
"B  c #7A6475",
"V  c #6D5366",
"C  c #6B5264",
"Z  c #70586A",
"A  c #755E6F",
"S  c #71596A",
"D  c #6C5265",
"F  c #9B7373",
"G  c #AB8C8C",
"H  c #887584",
"J  c #776071",
"K  c #6C5365",
"L  c #1E2727",
"P  c #907F8C",
"I  c #725B6C",
"U  c #786272",
"Y  c #796374",
"T  c #745D6E",
"R  c #6E5567",
"E  c #314040",
"W  c #3B4D4D",
"Q  c #485F5F",
"!  c #836F7E",
"~  c #6E5568",
"^  c #111717",
"/  c #1B2424",
"(  c #557070",
")  c #84707F",
"_  c #897684",
"`  c #6F5769",
"'  c #060707",
"]  c #293636",
"[  c #648484",
"{  c #7A6374",
"}  c #8D7B89",
"|  c #7D6777",
" . c #020202",
".. c #090C0C",
"X. c #293535",
"o. c #546F6F",
"O. c #485E5E",
"+. c #907E8C",
"@. c #887583",
"#. c #6B5164",
"$. c #725A6C",
"%. c #877382",
"&. c #948491",
"*. c #161D1D",
"=. c #384A4A",
"-. c #6D5467",
";. c #7C6777",
":. c #9C8D99",
">. c #8B7987",
",. c #735B6D",
"<. c #303F3F",
"1. c #765E70",
"2. c #958591",
"3. c #9F919C",
"4. c #735C6D",
"5. c #93828F",
"6. c #897785",
"7. c #9B7474",
"8. c #A295A0",
"9. c #7D6878",
"0. c #342A35",
"q. c #263232",
"w. c #705769",
"e. c #AB8D8D",
"r. c #39303A",
"t. c #192121",
"y. c #A98989",
"u. c #867281",
"i. c #9A7272",
"p. c #B29696",
"a. c #6C676E",
"s. c #3F3741",
"d. c #463E47",
"f. c #3D343E",
"g. c #6A656C",
"h. c #807C82",
"j. c #4B444D",
"k. c #322934",
"l. c #2D3C3C",
"z. c #394C4C",
"x. c #938390",
"c. c #5C555E",
"v. c #384949",
"b. c #4A6161",
"n. c #765F70",
"m. c #968793",
"M. c #666168",
"N. c #987373",
"B. c #344444",
"V. c #3A4C4C",
"C. c #4E6767",
"Z. c #364747",
"A. c #6F586A",
"S. c #A0929D",
"D. c #6E5869",
"F. c #324242",
"G. c #344545",
"H. c #141A1A",
"J. c #131919",
"K. c #6D5668",
"L. c #445A5A",
"P. c #1D2626",
"I. c #1A2222",
"U. c #806C7B",
"Y. c #BCA5A5",
"T. c #6B5365",
"R. c #AFC2C2",
"E. c #3B4E4E",
"W. c #171E1E",
"Q. c #B39898",
"!. c #6A5163",
"~. c #978894",
"^. c #283535",
"/. c #2E3D3D",
"(. c #4D6565",
"). c #314141",
"_. c #1C2525",
"`. c #2A3737",
"'. c #607F7F",
"]. c #283434",
"[. c #304040",
"{. c #577272",
"}. c #988995",
"|. c #3C4F4F",
" X c #1F2929",
".X c #3D5151",
"XX c #435858",
"oX c #435959",
"OX c #2F3F3F",
"+X c #71596B",
"@X c #796273",
"#X c #141B1B",
"$X c #445959",
"%X c #4C6464",
"&X c #5E7C7C",
"*X c #5A7676",
"=X c #557171",
"-X c #526D6D",
";X c #5C7A7A",
":X c #C6C1C7",
">X c #222C2C",
",X c #8C7A88",
"<X c #5D7A7A",
"1X c #4B6363",
"2X c #425757",
"3X c #7E6979",
"4X c #506A6A",
"5X c #1B2323",
"6X c #5F7D7D",
"7X c #496060",
"8X c #151C1C",
"9X c #546E6E",
"0X c #2C3A3A",
"qX c #9C7575",
"wX c #976D6D",
"eX c #615B63",
"rX c #4B434C",
"tX c #9D7676",
"yX c #997070",
"uX c #020303",
"iX c #575059",
"pX c #58515A",
"aX c #4A424B",
"sX c #3C333E",
"dX c white",
/* pixels */
"  . . . . . . X X . X . . .         . . . . . . X X . . .       ",
". . . X X X X X X X X X X X .     . . X X X X X X X X X X .     ",
". . X X X X X X X X X X X X .   . . X X X X X X X X X X X X .   ",
". X X X X X X X X X X X X X .   . X X X X X X X X X X X X X .   ",
". X X X X X X X X X X X X X X   . X X X X X X X X X X X X X X   ",
"X X X X X X X X X X X X X X X   . X X X X X X X X X X X X X .   ",
". X X X X X X X X X X X X X .   X X X X X X X X X X X X X X .   ",
"X X X X X X X X X X X X X X .   X X X X X X X X X X X X X X X   ",
"X X X X X X X X X X X X X X X   X X X X X X X X X X X X X X X   ",
". X X X X X X X X X X o o o o o o o X X X X X X X X X X X X .   ",
"X X X X X X X X X X o O + + + + + + o X X X X X X X X X X X .   ",
"X X X X X X X X X o O + + + o o o o + o X X X X X X X X X X X   ",
". X X X X X X X o O + + + o @ @ @ @ o + o X X X X X X X X X X   ",
". X X X X X X o O O + + o @ @ @ @ @ @ o + o X X X X X X X X .   ",
"  . X X . . o O O O + + o @ @ @ @ @ @ o + o . X X . X X . .     ",
"            o O O O O + o @ % @ @ @ % o + o                     ",
"  . . X . .   o o o O + o @ % @ @ @ % o + o X X X X X . . .     ",
". X X X X X $ X X o O + o @ @ @ @ @ @ o O o X X X X X X X .     ",
". X X X X $ X $ X o O O + o @ @ @ @ @ o O o X X X X X X X X .   ",
"X X X X X $ X X $ X o O O O o @ @ @ o O o X X X X X X X X X .   ",
"X X X X X $ X X X X o o o O O o o o O o X X X X X X X X X X .   ",
"X X X X $ X X X X X o O O O + + + + + O o X X X X X X X X X .   ",
"X X X $ X X X X X o O + + + + + + + + + o X X X X X X X X X .   ",
"X X X X X X X X X o O + + + + + + + + + O o X X X X X X X X .   ",
"X X X X X X X X X o + + + + + + + + + + + o X X X X X X X X X   ",
". X X X X X X X X o + + + + + + + + + + + o X X X X X X X X X   ",
". X X X X X X X o O + + + + + + O + + + + o X X X X X X X X .   ",
"  . X X X X X X o O + + + + O O o O + O + + o X X X X X X X .   ",
"  . X X X X X o O + + + O + O O o O O + + O O o X X X X X X .   ",
"  . X X X X X o + O + O O O O o @ o O O O O O o X X X X X X .   ",
"    . . . . o O O O O o O O o @ @ o O O O O O O o . X . . .     ",
"            o o o o o o o o o @ @ @ o o o o o o o               "
};
