/* XPM */
static char *idle_L_3[] = {
/* columns rows colors chars-per-pixel */
"32 32 80 1 ",
"  c #050404",
". c #0B0B0B",
"X c #1B0D0D",
"o c #110E11",
"O c #0F1212",
"+ c #121415",
"@ c #191317",
"# c #1C151B",
"$ c #151B1B",
"% c #191E1F",
"& c #320909",
"* c #380909",
"= c #20171D",
"- c #22191E",
"; c #2D1F1F",
": c #241C24",
"> c #291E26",
", c #271E28",
"< c #291F29",
"1 c #1B2424",
"2 c #1F2929",
"3 c #2C222B",
"4 c #212C2C",
"5 c #31252E",
"6 c #3A2929",
"7 c #2D2633",
"8 c #342731",
"9 c #372933",
"0 c #392B36",
"q c #3D2E39",
"w c #263232",
"e c #440A0A",
"r c #4F0B0B",
"t c #510909",
"y c #630A0A",
"u c #6D0909",
"i c #7A0A0A",
"p c #402F3B",
"a c #453131",
"s c #4D3636",
"d c #42313E",
"f c #4F3838",
"g c #563E3E",
"h c #583E3E",
"j c #463441",
"k c #493644",
"l c #4C3846",
"z c #4E3A49",
"x c #523D4C",
"c c #594040",
"v c #5D4242",
"b c #54404F",
"n c #564050",
"m c #594353",
"M c #5A4354",
"N c #5B4455",
"B c #5D4656",
"V c #5F4759",
"C c #5F485A",
"Z c #634747",
"A c #664949",
"S c #694B4B",
"D c #6C4D4D",
"F c #61495A",
"G c #62495C",
"H c #6F5050",
"J c #725252",
"K c #745353",
"L c #775555",
"P c #7B5757",
"I c #7B5959",
"U c #7D5A5A",
"Y c #880909",
"T c #815D5D",
"R c #855F5F",
"E c #876161",
"W c #8A6262",
"Q c #8B6464",
"! c #8E6666",
"~ c #926868",
/* pixels */
"3~~!!WEBNTmUUI::::IUUTTRVVQ!!333",
"~~!FVVBMmnxxxxK::LLxxbmmNBVFG!33",
"~!FVBNmnxxxzzlD:DDlzzxxbmNBVFG!3",
"!FVBNmbxxzlkjjZ#ZjjkkzzxxnmBVF!3",
"!VBNnxxzlkjddpq#cpddjkkzxxnmBVF3",
"CBNmxxzkjdpq009@f000qdjklxxnmBW3",
"EBmbxzkjdq0855a+355890pdklxxnNE3",
"Bmnxzkjpq9533>6o>><3580qdklxxmN3",
"Nmxxkjd0953>::-o--::>380qdkzxnm3",
"Tnxzkdq953:-##.......>380djlzxU<",
"mxzkjq053:-#@......O..>38qdkzxU,",
"nxzkd083:-#@........OO.350pjlxb:",
"Pxljp05>:#@..........OO.39qdkzx:",
"Pxkjq95>-#....&&..&&.O.O.80dkzL:",
":Jkdhs3:;-....yy..yy...O+.0dAH::",
":::##++o...............O+.@##:::",
":JSdgs+:;-...e......ie...50vAD::",
"Pzkdq8#:=@...Yu...uryX.:>50dkH::",
"Pxkjq:3#-#....uityurr..:380dkzL:",
"bxljp:5>+#@....e*y....->39qdkzP:",
"nxzkd:83:-#@..........:350pjlxP:",
"mxzk3q053:-...........>38qdkzxU,",
"mnx7kdq953:.+OOOOOO+++.80djlzxU<",
"Nmxxkjd095.+++++++++$+.0qdkzxnT3",
"Bmnxzkjpq9.$$$+++$$$$%.qdklxxmN3",
"EBmbxzkjdq.%$$$$$$$%11.dklxxnNB3",
"WBNmxxzkjd.111%$%11122%OlxxnmBW3",
"3WBNnxxzlO22$2$.$$22241OxxnmBVQ3",
"3QVBNmbxO11421%.%1214442OnmBVF!3",
"3!FVBNmnO22211. O111242wONBVFG!3",
"33!!WEBO222222O  O22O2224OVQ!!33",
"3333333OOOOOOO   OOOOOOOOO333333"
};
