/* XPM */
static char *assechart_36[] = {
/* columns rows colors chars-per-pixel */
"32 32 221 2 ",
"   c #2E242F",
".  c #966C6C",
"X  c #694F62",
"o  c #111616",
"O  c #2F3E3E",
"+  c #253131",
"@  c black",
"#  c #EEF2F2",
"$  c #3E3546",
"%  c #7D1414",
"&  c #393030",
"*  c #1A1A1D",
"=  c #2B272D",
"-  c #4E4C4C",
";  c #2F363A",
":  c #404349",
">  c #393A40",
",  c #4A3B47",
"<  c #241F26",
"1  c #554955",
"2  c #2E2D34",
"3  c #514551",
"4  c #1F181D",
"5  c #0E0B0E",
"6  c #594353",
"7  c #443340",
"8  c #1E171F",
"9  c #624646",
"0  c #2D2020",
"q  c #805C5C",
"w  c #271F28",
"e  c #C6C1C7",
"r  c #D4CACA",
"t  c #684E4E",
"y  c #6F5757",
"u  c #474343",
"i  c #2B2930",
"p  c #282D30",
"a  c #725C5C",
"s  c #966D6D",
"d  c #121818",
"f  c #010101",
"g  c #2F2530",
"h  c #312833",
"j  c #362D37",
"k  c #372F39",
"l  c #6A5063",
"z  c #976E6E",
"x  c #6D5366",
"c  c #976D6D",
"v  c #6F5668",
"b  c #7A6374",
"n  c #AA8B8B",
"m  c #907E8C",
"M  c #B09393",
"N  c #A17D7D",
"B  c #302631",
"V  c #6C5265",
"C  c #71596A",
"Z  c #755E6F",
"A  c #70586A",
"S  c #6B5264",
"D  c #7A6475",
"F  c #958592",
"G  c #332A34",
"H  c #6C5365",
"J  c #776071",
"K  c #887584",
"L  c #AB8C8C",
"P  c #392F3A",
"I  c #6E5567",
"U  c #745D6E",
"Y  c #796374",
"T  c #786272",
"R  c #725B6C",
"E  c #907F8C",
"W  c #1E2727",
"Q  c #6E5568",
"!  c #836F7E",
"~  c #485F5F",
"^  c #3B4D4D",
"/  c #314040",
"(  c #6F5769",
")  c #897684",
"_  c #84707F",
"`  c #557070",
"'  c #1B2424",
"]  c #111717",
"[  c #7D6777",
"{  c #8D7B89",
"}  c #648484",
"|  c #293636",
" . c #060707",
".. c #948491",
"X. c #877382",
"o. c #725A6C",
"O. c #6B5164",
"+. c #887583",
"@. c #485E5E",
"#. c #546F6F",
"$. c #293535",
"%. c #090C0C",
"&. c #020202",
"*. c #735B6D",
"=. c #8B7987",
"-. c #9C8D99",
";. c #7C6777",
":. c #6D5467",
">. c #384A4A",
",. c #161D1D",
"<. c #9F919C",
"1. c #958591",
"2. c #765E70",
"3. c #303F3F",
"4. c #897785",
"5. c #93828F",
"6. c #735C6D",
"7. c #997070",
"8. c #7D6878",
"9. c #A295A0",
"0. c #9B7474",
"q. c #705769",
"w. c #263232",
"e. c #3F3741",
"r. c #B39898",
"t. c #A98989",
"y. c #192121",
"u. c #322934",
"i. c #4B444D",
"p. c #807C82",
"a. c #6A656C",
"s. c #3D343E",
"d. c #463E47",
"f. c #6C676E",
"g. c #5C555E",
"h. c #6B656D",
"j. c #9A7373",
"k. c #575059",
"l. c #394C4C",
"z. c #2D3C3C",
"x. c #38303A",
"c. c #7A7581",
"v. c #765F70",
"b. c #645E6B",
"n. c #4A6161",
"m. c #384949",
"M. c #38313B",
"N. c #B29696",
"B. c #595260",
"V. c #433A4B",
"C. c #77737E",
"Z. c #4E6767",
"A. c #3A4C4C",
"S. c #344444",
"D. c #4B4353",
"F. c #3F3647",
"G. c #867281",
"H. c #364747",
"J. c #A0929D",
"K. c #131919",
"L. c #141A1A",
"P. c #344545",
"I. c #324242",
"U. c #806C7B",
"Y. c #1A2222",
"T. c #1D2626",
"R. c #445A5A",
"E. c #B59B9B",
"W. c #171E1E",
"Q. c #3B4E4E",
"!. c #AFC2C2",
"~. c #1C2525",
"^. c #314141",
"/. c #4D6565",
"(. c #2E3D3D",
"). c #283535",
"_. c #283434",
"`. c #796273",
"'. c #71596B",
"]. c #2F3F3F",
"[. c #435959",
"{. c #435858",
"}. c #3D5151",
"|. c #1F2929",
" X c #3C4F4F",
".X c #987070",
"XX c #988995",
"oX c #577272",
"OX c #304040",
"+X c #2A3737",
"@X c #607F7F",
"#X c #222C2C",
"$X c #5C7A7A",
"%X c #526D6D",
"&X c #557171",
"*X c #5A7676",
"=X c #5E7C7C",
"-X c #4C6464",
";X c #445959",
":X c #141B1B",
">X c #7E6979",
",X c #425757",
"<X c #4B6363",
"1X c #5D7A7A",
"2X c #8C7A88",
"3X c #151C1C",
"4X c #496060",
"5X c #5F7D7D",
"6X c #1B2323",
"7X c #506A6A",
"8X c #2C3A3A",
"9X c #546E6E",
"0X c #020303",
"qX c #3C333E",
"wX c #4B434C",
"eX c #615B63",
"rX c #9B7373",
"tX c #342A35",
"yX c #4A424B",
"uX c #58515A",
"iX c white",
/* pixels */
"  . . . . . . X X . X . . .         . . . . . . X X . . .       ",
". . . X X X X X X X X X X X .     . . X X X X X X X X X X .     ",
". . X X X X X X X X X X X X .   . . X X X X X X X X X X X X .   ",
". X X X X X X X X X X X X X .   . X X X X X X X X X X X X X .   ",
". X X X X X X X X X X X X X X   . X X X X X X X X X X X X X X   ",
"X X X X X X X X X X X X X X X   . X X X X X X X X X X X X X .   ",
". X X X X X X X X X X X X X .   X X X X X X X X X X X X X X .   ",
"X X X X X X X X X X X X X X .   X X X X X X X X X X X X X X X   ",
"X X X X X X X X X X X X X X X   X X X X X X X X X X X X X X X   ",
". X X X X X X X X X X X X X X   X X X X X X X X X X X X X X .   ",
"X X X X X X X X X X X X X X X   X X X X X X X X X X X X X X .   ",
"X X X X X X X X X X X X X X X   . X X X X X X X X X X X X X X   ",
". X X X X X X X X X X X X X o o o o o o o o X X X X X X X X X   ",
". X X X X X X X X X X X X o O O O O O O + + o o o X X X X X .   ",
"  . X X . . X X . . X X o O o o o o O O O O + + + o X X . .     ",
"                      o O o @ @ @ @ o O O O + + + o             ",
"  . . X . .   X . . o O o @ @ @ @ @ @ o O O + + o X X . . .     ",
". X X X X X $ X X X o O o @ @ @ @ @ @ o O + + o X X X X X .     ",
". X X X X $ X $ X X o O o @ @ @ @ @ @ o O + o X X X X X X X .   ",
"X X X X X $ X X $ X o O o @ @ @ @ @ @ o O + o X X X X X X X .   ",
"X X X X X $ X X X X o + o @ @ @ @ @ @ o O + o X X X X X X X .   ",
"X X X X $ X X X X X o + o @ @ @ @ @ o O + o X X X X X X X X .   ",
"X X X $ X X X X X X X o + o @ @ @ o + + o X X X X X X X X X .   ",
"X X X X X X X X X X X o o + o o o + + o o o X X X X X X X X .   ",
"X X X X X X X X X X o + O O O O O O O O O + o X X X X X X X X   ",
". X X X X X X X X X o + O O O O O O O O O O o o X X X X X X X   ",
". X X X X X X X X o + O O O O O O O O O O O O + o X X X X X .   ",
"  . X X X X X X o + O O O O O O O O O O O O O + + o X X X X .   ",
"  . X X X X X X o + O O O O + + O O O O O O O O + o o X X X .   ",
"  . X X X X X o + O O O O + + + + O + O O O O O + + o X X X .   ",
"    . . . . o o + + + + + + + o + + + + O O + + + + o o . .     ",
"            o o o o o o o o o o o o o o o o o o o o o o         "
};
