/* XPM */
static char *imagen_destino[] = {
/* columns rows colors chars-per-pixel */
"32 32 101 2 ",
"   c gray2",
".  c #0F0E0E",
"X  c #100F0F",
"o  c #1C0F0F",
"O  c #0F1111",
"+  c #111212",
"@  c #151215",
"#  c #121414",
"$  c #141717",
"%  c #1C1111",
"&  c #181417",
"*  c #1A151B",
"=  c #1A161C",
"-  c #1C161C",
";  c #161B1B",
":  c #171C1C",
">  c #1D181D",
",  c #191F1F",
"<  c #251111",
"1  c #291111",
"2  c #20191D",
"3  c #331414",
"4  c #381515",
"5  c #231B22",
"6  c #251C22",
"7  c #231C24",
"8  c #261E27",
"9  c #281E25",
"0  c #241F28",
"q  c #281F29",
"w  c #1B2121",
"e  c #1C2323",
"r  c #1E2727",
"t  c #1F2929",
"y  c #2F2121",
"u  c #2A2027",
"i  c #2B222B",
"p  c #2C2129",
"a  c #29232E",
"s  c #2C222D",
"d  c #2E242F",
"f  c #212B2B",
"g  c #232D2D",
"h  c #242F2F",
"j  c #33262F",
"k  c #3C2B2B",
"l  c #2E2834",
"z  c #342730",
"x  c #352832",
"c  c #392B35",
"v  c #3B2C36",
"b  c #3D2D38",
"n  c #263232",
"m  c #421818",
"M  c #461919",
"N  c #4A1A1A",
"B  c #4E1B1B",
"V  c #561D1D",
"C  c #402F3B",
"Z  c #473232",
"A  c #4E3737",
"S  c #41313C",
"D  c #523A3A",
"F  c #593F3F",
"G  c #463441",
"H  c #483643",
"J  c #4B3746",
"K  c #4B3946",
"L  c #4C3947",
"P  c #4F3B4A",
"I  c #4F3C4A",
"U  c #503C4B",
"Y  c #523E4D",
"T  c #543E4D",
"R  c #5C4242",
"E  c #54404F",
"W  c #56404F",
"Q  c #564151",
"!  c #594353",
"~  c #5A4354",
"^  c #5A4454",
"/  c #5D4657",
"(  c #5E4758",
")  c #614646",
"_  c #664949",
"`  c #6A4C4C",
"'  c #6E4F4F",
"]  c #60495A",
"[  c #62495C",
"{  c #735252",
"}  c #765454",
"|  c #7A5757",
" . c #7B5959",
".. c #7F5B5B",
"X. c #835E5E",
"o. c #845F5F",
"O. c #876161",
"+. c #886262",
"@. c #8A6464",
"#. c #8E6666",
"$. c #926A6A",
/* pixels */
"d $.$.#.#.@.+.( / X.~ ......8 8 8 8 ....X.X.o.O.( ] #.#.$.d d d ",
"$.$.#.[ ] ( / ^ ! ! W W Y Y } 8 8 } } W W ! ! ^ / ( ] [ [ $.d d ",
"$.#.[ ] ( / ~ Q W Y Y I P P ' 5 ' { P I Y Y W Q ~ / ( ] [ [ $.d ",
"#.[ ] ( ^ ! Q T Y P P J H H _ 5 _ H H J P P Y T Q ! ^ ( ] [ #.s ",
"#.] ( ^ ! W Y I P J G G S S S > R S S G G J P I Y W ! ^ ( ] [ s ",
"] ( / ! W Y P J H G S b b v c * D v b b S G H J P Y W ! / ( +.s ",
"+./ ! W Y P J G S b v x x j Z & j j x x v b S G J P Y W ! / +.i ",
"/ ^ Q T P J G S b c z j p p k @ u p p j z c b S G J P T Q ^ / i ",
"/ ! W U K G S b c j p u 8 6 5 + 5 6 8 u p j c b S G K U W ! / i ",
"X.Q Y P H S b c j p 8 . . . . . . . 2 6 8 p j c b S H P Y Q X.i ",
"! W U K G S c j p 8 . + + + + + + + . 2 5 8 p j c S G K U W ..i ",
"Q Y P J S b x j 9 . + + + + . . . . + . > 5 9 j x b S J P Y Q i ",
" .Y L G S c j p . + + + + . . . . . . + . 2 6 p j c S G L Y Q q ",
" .U K G C c j . + + + + . 1 1 . . o o . + . 5 9 j c C G K U  .0 ",
"8 { K G F A . # + + + . . m m . . V 3 . + . y 8 p A b G ` { 8 0 ",
"8 7 5 > - * . # + + . . . . . . . . X . + . + @ @ * - > 5 7 8 0 ",
"8 { ` S F A @ . . . . % 3 . . . . . X . + . 2 8 p x b ) ` { 8 0 ",
"| U K G b x > 8 2 . X % 3 M 4 < . . B N X . 2 8 p x b G K { 8 0 ",
" .U K G C 7 j = 5 . + . . < 4 M M 4 M . + . 5 9 j c C G K U  .0 ",
"Q Y L G S 7 j p * 2 . X . . . . < 4 . X . 2 6 p j c S G L Y  .q ",
"Q Y P J S 0 x j 9 5 . . . . . . . . X . > 5 9 j x b S J P Y ..i ",
"! W U K a S c j p 8 . + + + + + + + + + . 8 p j c S G K U W ..i ",
"^ Q Y l H S b c j . # $ # # + + + # # $ . p j c b S G P Y Q X.i ",
"/ ! W U K G S b c O $ ; ; $ # # # $ ; ; $ O c b S G K U W ! X.i ",
"/ ^ Q T P J G S b O , , : ; ; ; ; ; : , , O b S G J P T Q ^ / i ",
"+./ ! W Y P J G S O e w w , , , , , w w e O S G J P Y W ! / ( i ",
"+.( / ! W Y P J + w r r r e w w ; e r r r O H J P Y W ! / ( +.s ",
"i +.( ^ ! W Y I + e f t r r , , O , r w f g + I Y W ! ^ ( ] #.s ",
"s #.] ( ^ ! Q + r h g g w f w w O w w g g r r + Q ! ^ ( ] [ #.s ",
"s #.[ ] ( / ~ # n r h r r r r +   + r r r r t # ~ / ( ] [ [ $.d ",
"d s #.#.+.O.# f f t t + r r +     + r r t t f f # O.] #.#.$.d d ",
"d d s s s i # # # # # # # # #       # # # # # # # i s s s d d d "
};
