/* XPM */
static char *assechart_09[] = {
/* columns rows colors chars-per-pixel */
"32 32 8 1 ",
"  c black",
". c #3A0911",
"X c #2E242F",
"o c #3E3546",
"O c #694F62",
"+ c #811426",
"@ c #A11B31",
"# c #966C6C",
/* pixels */
"X######OO#O###XXXX######OO###XXX",
"###OOOOOOOOOOO#XX##OOOOOOOOOO#XX",
"##OOOOOOOOOOOO#X##OOOOOOOOOOOO#X",
"#OOOOOOOOOOOOO#X#OOOOOOOOOOOOO#X",
"#OOOOOOOOOOOOOOX#OOOOOOOOOOOOOOX",
"OOOOOOOOOOO.......OOOOOOOOOOOO#X",
"#OOOOOOOOO.+@@@@@@.OOOOOOOOOOO#X",
"OOOOOOOOO.+@@@....@.OOOOOOOOOOOX",
"OOOOOOOO.+@@@.    .@.OOOOOOOOOOX",
"#OOOOOOO.+@@.      .@.OOOOOOOO#X",
"OOOOOOO.++@@.      .@.OOOOOOOO#X",
"OOOOOOO.+++@.      .@.OOOOOOOOOX",
"#OOOOOO.+.+@.      .@.OOOOOOOOOX",
"#OOOOOO.+.+@.      .+.OOOOOOOO#X",
"X#OO##OO..++@.     .+.#OO#OO##XX",
"XXXXXXXXXX.+++.   .+.XXXXXXXXXXX",
"X##O##XO##X..++...+.O#OOOOO###XX",
"#OOOOOoOOO.+++@@@@@+.OOOOOOOO#XX",
"#OOOOoOoO.+@@@@@@@@@+.OOOOOOOO#X",
"OOOOOoOOo.+@@@@@@@@@+.OOOOOOOO#X",
"OOOOOoOOO.@@@@@@@@@@@.OOOOOOOO#X",
"OOOOoOOO.+@@@@@@@@@@@.OOOOOOOO#X",
"OOOoOOOO.+@@@@@@+@@@@+.OOOOOOO#X",
"OOOOOOOO.+@@@@@@+@@@@+.OOOOOOO#X",
"OOOOOOOO.+@@@@@+.+@@++.OOOOOOOOX",
"#OOOOOO.+++@+@++.++@++.OOOOOOOOX",
"#OOOOOO.++++@++. .++++.OOOOOOO#X",
"X#OOOOO.+.++++.  .++.+.OOOOOOO#X",
"X#OOOOOO..+.++.   .++.OOOOOOOO#X",
"X#OOOOOOO..O...XX ...OOOOOOOOO#X",
"XX####OO###### XX## #O#O##O###XX",
"XXXXXXXXXXXXX XXXX XXXXXXXXXXXXX"
};
