/* XPM */
static char *assechart_14[] = {
/* columns rows colors chars-per-pixel */
"32 32 250 2 ",
"   c #2E242F",
".  c #966C6C",
"X  c #694F62",
"o  c #3A0911",
"O  c #A11B31",
"+  c #811426",
"@  c black",
"#  c white",
"$  c #3E3546",
"%  c #55272C",
"&  c #36111A",
"*  c #481E29",
"=  c #9E3343",
"-  c #7F1E30",
";  c #902A40",
":  c #7A2638",
">  c #593746",
",  c #321B25",
"<  c #7D3D51",
"1  c #562130",
"2  c #713A4D",
"3  c #1F181D",
"4  c #0E0B0E",
"5  c #594353",
"6  c #443340",
"7  c #1E171F",
"8  c #624646",
"9  c #2D2020",
"0  c #805C5C",
"q  c #271F28",
"w  c #D2CBD0",
"e  c #E0D3D3",
"r  c #76494C",
"t  c #8F4D54",
"y  c #872E3B",
"u  c #4B1E2C",
"i  c #681929",
"p  c #9A5057",
"a  c #956D6D",
"s  c #966D6D",
"d  c #3B0B13",
"f  c #000101",
"g  c #2F2631",
"h  c #2F2934",
"j  c #302F39",
"k  c #31313C",
"l  c #6A5063",
"z  c #986E6E",
"x  c #6D5466",
"c  c #976D6D",
"v  c #6F5769",
"b  c #7C6576",
"n  c #AE8E8E",
"m  c #958290",
"M  c #B49797",
"N  c #A37E7E",
"B  c #372D38",
"V  c #302631",
"C  c #6C5265",
"Z  c #72596B",
"A  c #775F70",
"S  c #71596B",
"D  c #6B5264",
"F  c #7C6676",
"G  c #9B8A96",
"H  c #A47F7F",
"J  c #342A35",
"K  c #2F2530",
"L  c #6D5366",
"P  c #796273",
"I  c #8C7887",
"U  c #AF8F8F",
"Y  c #39303A",
"T  c #6E5568",
"R  c #765E70",
"E  c #7B6475",
"W  c #7A6374",
"Q  c #745B6D",
"!  c #958390",
"~  c #B59797",
"^  c #481A22",
"/  c #3C0B13",
"(  c #6F5668",
")  c #867281",
"_  c #745157",
"`  c #A82B40",
"'  c #A21D33",
"]  c #705769",
"[  c #8D7988",
"{  c #877281",
"}  c #B75161",
"|  c #45171E",
" . c #3B0A12",
".. c #7F6979",
"X. c #927F8C",
"o. c #C06776",
"O. c #532930",
"+. c #070707",
"@. c #010101",
"#. c #9A8895",
"$. c #8B7685",
"%. c #735B6C",
"&. c #6B5164",
"*. c #8C7886",
"=. c #735056",
"-. c #B75061",
";. c #53282F",
":. c #0B0B0B",
">. c #020202",
",. c #745C6E",
"<. c #907D8B",
"1. c #A2929E",
"2. c #6E5567",
"3. c #A6283C",
"4. c #3F1018",
"5. c #A696A1",
"6. c #9A8996",
"7. c #776071",
"8. c #A11C32",
"9. c #8D7A88",
"0. c #988693",
"q. c #755D6E",
"w. c #2E2530",
"e. c #997171",
"r. c #806A7A",
"t. c #A99AA5",
"y. c #9C7575",
"u. c #71586A",
"i. c #821628",
"p. c #2E2731",
"a. c #413842",
"s. c #B89C9C",
"d. c #AD8C8C",
"f. c #42141B",
"g. c #302A35",
"h. c #4E454F",
"j. c #878288",
"k. c #706970",
"l. c #3E353F",
"z. c #483F49",
"x. c #726B73",
"c. c #811527",
"v. c #605861",
"b. c #706A71",
"n. c #9B7373",
"m. c #5B535C",
"M. c #643E44",
"N. c #872031",
"B. c #32323C",
"V. c #807A85",
"C. c #786071",
"Z. c #68616E",
"A. c #9C4755",
"S. c #A6273C",
"D. c #31333D",
"F. c #B79A9A",
"G. c #AA9BA6",
"H. c #5C5462",
"J. c #433B4B",
"K. c #7D7782",
"L. c #7A595E",
"P. c #913141",
"I. c #A42137",
"U. c #4C4454",
"Y. c #403747",
"T. c #897584",
"R. c #A5253A",
"E. c #A797A3",
"W. c #3C0C14",
"Q. c #3D0D15",
"!. c #A42237",
"~. c #A21F34",
"^. c #836E7E",
"/. c #43151C",
"(. c #471921",
"). c #AD394C",
"_. c #A72A3F",
"`. c #BB9F9F",
"'. c #806166",
"]. c #913242",
"[. c #401118",
"{. c #923343",
"}. c #E3BBC2",
"|. c #AE394C",
" X c #461820",
".X c #892334",
"XX c #A21E33",
"oX c #9F4B59",
"OX c #882132",
"+X c #83192A",
"@X c #831829",
"#X c #7B6474",
"$X c #725A6C",
"%X c #5A3137",
"&X c #983F4E",
"*X c #9B4553",
"=X c #983E4D",
"-X c #AC374A",
";X c #A92F43",
":X c #8B2637",
">X c #491C24",
",X c #A82D41",
"<X c #A82C40",
"1X c #997070",
"2X c #9F8E9A",
"3X c #A65966",
"4X c #8A2535",
"5X c #892434",
"6X c #851B2D",
"7X c #AD6672",
"8X c #841A2B",
"9X c #4C1F26",
"0X c #5C333A",
"qX c #BC5B6B",
"wX c #A35360",
"eX c #A55764",
"rX c #755359",
"tX c #A85D69",
"yX c #BD5E6E",
"uX c #9E4A58",
"iX c #AD384B",
"pX c #3E0E16",
"aX c #816B7B",
"sX c #963C4B",
"dX c #9E4957",
"fX c #A45562",
"gX c #AB616D",
"hX c #841A2C",
"jX c #976E6E",
"kX c #917E8C",
"lX c #3F0F17",
"zX c #9C4654",
"xX c #AC6470",
"cX c #44161D",
"vX c #7C5B60",
"bX c #562C33",
"nX c gray26",
"mX c #676767",
"MX c gray1",
"NX c #3E343E",
"BX c #4D454E",
"VX c #665E66",
"CX c #686868",
"ZX c #9C7474",
"AX c #302731",
"SX c #352B36",
"DX c #4C444D",
"FX c #5C545D",
"GX c #202020",
"HX c white",
/* pixels */
"  . . . . . . X X . X . . .         . . . . . . X X . . .       ",
". . . X X X X X X X X X X X .     . . X X X X X X X X X X .     ",
". . X X X X X X X X X X X X .   . . X X X X X X X X X X X X .   ",
". X X X X X X X X X X X X X .   . X X X X X X X X X X X X X .   ",
". X X X X X X X X X X X X X X   . X X X X X X X X X X X X X X   ",
"X X X X X X X X X X X X X X o o o o o o o X X X X X X X X X .   ",
". X X X X X X X X X X X X o O O O O O O + o X X X X X X X X .   ",
"X X X X X X X X X X X X o O o o o o O O O + o X X X X X X X X   ",
"X X X X X X X X X X X o O o @ @ @ @ o O O O + o X X X X X X X   ",
". X X X X X X X X X o O o @ @ @ @ @ @ o O O + o X X X X X X .   ",
"X X X X X X X X X X o O o @ @ @ @ @ @ o O O + + o X X X X X .   ",
"X X X X X X X X X X o O o @ @ @ @ @ @ o O + + + o X X X X X X   ",
". X X X X X X X X X o O o @ @ @ @ @ @ o O + o + o X X X X X X   ",
". X X X X X X X X X o + o @ @ @ @ @ @ o O + o + o X X X X X .   ",
"  . X X . . X X . . o + o @ @ @ @ @ o O + + o o X . X X . .     ",
"                      o + o @ @ @ o + + + o                     ",
"  . . X . .   X . .     o + o o o + + o o . X X X X X . . .     ",
". X X X X X $ X X X . o + O O O O O + + + o X X X X X X X .     ",
". X X X X $ X $ X X o + O O O O O O O O O + o X X X X X X X .   ",
"X X X X X $ X X $ X o + O O O O O O O O O + o X X X X X X X .   ",
"X X X X X $ X X X X o O O O O O O O O O O O o X X X X X X X .   ",
"X X X X $ X X X X X o O O O O O O O O O O O + o X X X X X X .   ",
"X X X $ X X X X X o + O O O O + O O O O O O + o X X X X X X .   ",
"X X X X X X X X X o + O O O O + O O O O O O + o X X X X X X .   ",
"X X X X X X X X X o + + O O + o + O O O O O + o X X X X X X X   ",
". X X X X X X X X o + + O + + o + + O + O + + + o X X X X X X   ",
". X X X X X X X X o + + + + o @ o + + O + + + + o X X X X X .   ",
"  . X X X X X X X o + o + + o @ @ o + + + + o + o X X X X X .   ",
"  . X X X X X X X X o + + o @ @ @ o + + o + o o X X X X X X .   ",
"  . X X X X X X X X X o o o @     o o o X o o X X X X X X X .   ",
"    . . . . X X . . . . @ .       @ . X . X . X . . X . . .     ",
"                          @         @                           "
};
