/* XPM */
static char *assechart_00[] = {
/* columns rows colors chars-per-pixel */
"32 32 9 1 ",
"  c black",
". c #3A0911",
"X c #2E242F",
"o c #3E3546",
"O c #694F62",
"+ c #811426",
"@ c #A11B31",
"# c #966C6C",
"$ c white",
/* pixels */
"X######OO#O###XXXX######OO###XXX",
"###OOOOOOOOOOO#XX##OOOOOOOOOO#XX",
"##OOOOOOOOOOOO#X##OOOOOOOOOOOO#X",
"#OOOOOOOOOOOOO#X#OOOOOOOOOOOOO#X",
"#OOOOOOOOOO.......OOOOOOOOOOOOOX",
"OOOOOOOOOO.+@@@@@@.OOOOOOOOOOO#X",
"#OOOOOOOO.+@@@....@.OOOOOOOOOO#X",
"OOOOOOOO.+@@@.    .@.OOOOOOOOOOX",
"OOOOOOOO.+@@.      .@.OOOOOOOOOX",
"#OOOOOO.++@@.      .@.OOOOOOOO#X",
"OOOOOOO.+++@. $   $.@.OOOOOOOO#X",
"OOOOOOO.+.+@. $   $.@.OOOOOOOOOX",
"#OOOOOO.+.+@.      .+.OOOOOOOOOX",
"#OOOOOOO..++@.     .+.OOOOOOOO#X",
"X#OO##OO##.+++.   .+.##OO#OO##XX",
"XXXXXXXXXXX..++...+.XXXXXXXXXXXX",
"X##O##XO##.+++@@@@@+.#OOOOO###XX",
"#OOOOOoOO.+@@@@@@@@@+.OOOOOOO#XX",
"#OOOOoOoO.+@@@@@@@@@+.OOOOOOOO#X",
"OOOOOoOOo.@@@@@@@@@@@.OOOOOOOO#X",
"OOOOOoOO.+@@@@@@@@@@@.OOOOOOOO#X",
"OOOOoOOO.+@@@@@@+@@@@+.OOOOOOO#X",
"OOOoOOOO.+@@@@@@+@@@@+.OOOOOOO#X",
"OOOOOOOO.+@@@@@+.+@@++.OOOOOOO#X",
"OOOOOOO.+++@+@++.++@++.OOOOOOOOX",
"#OOOOOO.++++@++. .++++.OOOOOOOOX",
"#OOOOOO.+.++++.  .++.+.OOOOOOO#X",
"X#OOOOOO..+.++.   .++.OOOOOOOO#X",
"X#OOOOOOO..O...XX ...OOOOOOOOO#X",
"X#OOOOOOOOOO  #XX# OOOOOOOOOOO#X",
"XX####OO##### XXX# O#O#O##O###XX",
"XXXXXXXXXXXXX XXXX XXXXXXXXXXXXX"
};
