/* XPM */
static const char *m_icon[] = {
/* columns rows colors chars-per-pixel */
"32 32 27 1 ",
"  c #172139",
". c #17213A",
"X c #18213A",
"o c #18223B",
"O c #3A0911",
"+ c #811426",
"@ c #A11B31",
"# c #18223C",
"$ c #18233C",
"% c black",
"& c #18233D",
"* c #19233D",
"= c white",
"- c #19243E",
"; c #19253F",
": c #1A2540",
"> c #1A2640",
", c #1A2641",
"< c #1A2642",
"1 c #1A2742",
"2 c #1B2743",
"3 c #1B2843",
"4 c #1B2844",
"5 c #1B2845",
"6 c #1B2945",
"7 c #1C2945",
"8 c #1C2946",
/* pixels */
"                                ",
"................................",
"................................",
"XXXXXXXXXXXXXXXXXXXXXXXXXXXXXXXX",
"ooooooooooooOOOOOOOooooooooooooo",
"oooooooooooO+@@@@@@Ooooooooooooo",
"##########O+@@@OOOO@O###########",
"$$$$$$$$$O+@@@O%%%%O@O$$$$$$$$$$",
"$$$$$$$$$O+@@O%%%%%%O@O$$$$$$$$$",
"&&&&&&&&O++@@O%%%%%%O@O&&&&&&&&&",
"********O+++@O%=%%%=O@O*********",
"--------O+O+@O%=%%%=O@O---------",
"--------O+O+@O%%%%%%O+O---------",
"---------OO++@O%%%%%O+O---------",
";;;;;;;;;;;O+++O%%%O+O;;;;;;;;;;",
";;;;;;;;;;;OOO++OOO+O;;;;;;;;;;;",
"::::::::::O+@@@@@@@@+O::::::::::",
":::::::::O+@@@@@@@@@+O::::::::::",
">>>>>>>>>O+@@@@@@@@@+O>>>>>>>>>>",
",,,,,,,,,O@@@@@@@@@@@O,,,,,,,,,,",
",,,,,,,,O+@@@@@@@@@@@O,,,,,,,,,,",
"<<<<<<<<O+@@@@@@+@@@@+O<<<<<<<<<",
"11111111O+@@@@@+O+@@++O111111111",
"2222222O+++@+@++O++@++O222222222",
"2222222O++++@++O%O++++O222222222",
"3333333O+O++++O%%O++O+O333333333",
"44444444OO+O++O%%%O++O4444444444",
"444444444OO4OOO44%OOO44444444444",
"555555555555%%555%%5555555555555",
"6666666666%%666666%6666666666666",
"777777777777777777%7777777777777",
"888888888888888888%8888888888888"
};
