/* XPM */
static char *imagen_destino[] = {
/* columns rows colors chars-per-pixel */
"32 32 134 2 ",
"   c #1D212C",
".  c #20242F",
"X  c #222631",
"o  c #242934",
"O  c #282D37",
"+  c #2A2E3A",
"@  c #2D323D",
"#  c #30343F",
"$  c #2F3541",
"%  c #323641",
"&  c #353A44",
"*  c #383D47",
"=  c #3A3E49",
"-  c #3D434C",
";  c #40474E",
":  c #41484E",
">  c #424651",
",  c #474C54",
"<  c #474D56",
"1  c #464E56",
"2  c #444A53",
"3  c #484A56",
"4  c #484B56",
"5  c #484D55",
"6  c #484F55",
"7  c #494C57",
"8  c #484D57",
"9  c #494D57",
"0  c #494F56",
"q  c #494E57",
"w  c #494F57",
"e  c #484D57",
"r  c #4A4D58",
"t  c #494E58",
"y  c #494F58",
"u  c #4A4E58",
"i  c #4A4F58",
"p  c #4B4F58",
"a  c #4A4F59",
"s  c #4B4F59",
"d  c #4B4F5A",
"f  c #4A4F58",
"g  c #485057",
"h  c #4A5057",
"j  c #4A5157",
"k  c #4A5257",
"l  c #495157",
"z  c #495158",
"x  c #4A5058",
"c  c #4A5158",
"v  c #4A5059",
"b  c #4B5059",
"n  c #4B5159",
"m  c #4B5259",
"M  c #4C5358",
"N  c #4C505A",
"B  c #4C515A",
"V  c #4D515B",
"C  c #4C525A",
"Z  c #4C535B",
"A  c #4D535B",
"S  c #4C5459",
"D  c #4D555A",
"F  c #4D555B",
"G  c #4D535C",
"H  c #4E535C",
"J  c #4E545C",
"K  c #4F545D",
"L  c #4F555D",
"P  c #4E565C",
"I  c #4F565D",
"U  c #4F575D",
"Y  c #4E545C",
"T  c #4F585D",
"R  c #4F585E",
"E  c #50545E",
"W  c #50565E",
"Q  c #50575E",
"!  c #51575E",
"~  c #51575F",
"^  c #50565E",
"/  c #50585D",
"(  c #51585D",
")  c #50585E",
"_  c #50595E",
"`  c #51585F",
"'  c #50595F",
"]  c #51595F",
"[  c #51595F",
"{  c #515660",
"}  c #505961",
"|  c #525860",
" . c #525960",
".. c #515A60",
"X. c #525A60",
"o. c #535A60",
"O. c #525B60",
"+. c #535B60",
"@. c #535A61",
"#. c #535B61",
"$. c #545B62",
"%. c #535C60",
"&. c #535C61",
"*. c #535C62",
"=. c #545D61",
"-. c #545C62",
";. c #555C62",
":. c #545D62",
">. c #555D63",
",. c #555E62",
"<. c #555E63",
"1. c #565E63",
"2. c #565F63",
"3. c #565E64",
"4. c #565F64",
"5. c #555E63",
"6. c #585F65",
"7. c #566064",
"8. c #576064",
"9. c #576065",
"0. c #576165",
"q. c #576065",
"w. c #586165",
"e. c #586166",
"r. c #5A6369",
"t. c #5A626A",
"y. c #5B636B",
"u. c #5C666C",
"i. c #5C656B",
"p. c #5E686D",
"a. c #5F696E",
"s. c #60696F",
"d. c #626B73",
"f. c #6A757A",
/* pixels */
"  @ - & o X X X         . X X X X o o         X . X X X X       ",
"  & E >.S 5 , 2 @     X - 2 j S J ` J = . X & j 2 5 z z 2 %     ",
"X > 4.>.4.>.>.E j o O : >.&.4.8.8.8.4.` = ; >.4.8.8.8.8.4.N O   ",
"X > +.4.4.4.4.8.+.% * 8.4.4.4.4.4.4.4.8.5 ; 8.4.4.4.E ` +.$.&   ",
"X > >.4.>.4.4.4.>.- & +.8.4.4.4.4.4.4.8.5 - 8.4.4.+.N 4 5 >.2 X ",
"  & >.>.E 4.4.4.4.+.- - 8.4.4.4.4.4.4.8.5 - 8.4.4.+.y 4 5 >.z X ",
"  & >.H J 4.4.4.4.+.y.- +.4.4.4.4.4.4.8.5 - 4.4.4.8.J N +.4.J o ",
"o j >.N J 4.4.4.4.$.{ @ = ` 8.4.>.8.8.8.5 @ y.4.4.4.>.>.4.8.J X ",
"& >.4.+.>.4.4.4.4.>.> X o = y N 5 5 z y y # s.>.4.4.4.4.4.8.` @ ",
"- 4.4.8.8.8.8.4.8.>.= % 2 2 > 2 2 - @ O @ o 5 &.4.4.4.4.4.8.` @ ",
"& >.&.- ; ; , ` ` - & +.8.8.8.8.8.4.+.N 2 O & +.4.4.4.4.4.8.S X ",
"X & * 2 T S 2 - - @ z 8.4.+.>.4.4.4.4.4.>.2 @ N 8.8.8.8.8.4.:   ",
"  X 2 +.4.8.8.4.2 +.f.>.>.y J 4.4.4.4.4.8.z X @ - z T +.` j @   ",
"  - +.y >.4.4.4.- d.p.4.E 5 N +.4.4.4.4.4.y o o & - & % % o     ",
"O u.E J >.4.4.>.z y J >.>.>.>.>.4.4.4.4.>.y.% 2 8.8.&.T J 2 o   ",
"X j 4.4.4.4.4.4.>.& * N >.8.8.8.4.4.4.4.8.J @ ` 8.4.8.8.8.>.- X ",
"  - 8.4.4.4.4.4.>.= X * y +.` ` >.4.8.8.8.z @ ` 4.>.E E >.8.J O ",
"  & ` +.>.4.4.4.>.2 O O # = - = - T N J >.2 @ ` 4.4.E 5 +.4.E = ",
"  X o * N >.4.8.z & - 5 J ` >.+.> 2 2 - - O & 4.4.4.4.E N >.$.- ",
"  o & % & > N ` & * y +.8.4.4.4.8.8.8.&.5 o - w.8.8.8.8.>.+.J - ",
"  & >.>.2 O # % % j y >.4.4.>.N +.4.4.w.+.@ = z y z z y y - @ o ",
"X > >.8.4.J * O : j ` 4.4.4.E 4 J 4.4.4.` & o o o O - > - @     ",
"  & >.4.4.8.+.& N E 4.4.4.4.>.>.>.4.4.8.E # # > y N >.4.E 2 O   ",
"X > >.4.4.4.2 O = z >.8.4.4.4.4.4.>.>.` > # 2 +.8.8.4.4.4.J - . ",
"o y 4.4.8.J & , 2 # 2 +.4.+.>.4.+.H E 5 - N >.4.4.4.4.4.4.+.> X ",
"O z 8.&.S - 5 >.8., & & y J >.8.>.y - = 5 8.4.4.4.4.4.4.4.>.y O ",
"- J +.- & 5 >.4.4.8.>.2 = ; J ` 2 @ % J 4.4.4.4.4.4.4.4.4.8.J % ",
"- ` E E E >.4.4.+.J 4.4.` , - = o & ` 8.4.4.4.4.4.4.4.4.4.4.J & ",
"# 5 ` E ` 8.4.8.J 5 >.4.4.E z & X 2 4.4.4.4.4.4.4.4.4.4.4.+.N * ",
"  # j E y J >.4.>.+.>.>.+.z @ @ @ & 5 +.>.>.4.4.4.4.>.>.8.4.>.- ",
"    % ` ` N y J u.p.J - > @ X 5 j - & 5 y N E J J J z z S S j @ ",
"      % - - - - - - O X X     o o @ % % - +.5 & % & & O X X X   "
};
