/* XPM */
static char *_[] = {
/* columns rows colors chars-per-pixel */
"32 32 10 1 ",
"  c #2E242F",
". c #966C6C",
"X c #694F62",
"o c black",
"O c #F9AB0F",
"+ c #FECC0F",
"@ c #FEFEFE",
"# c #3E3546",
"$ c #E98710",
"% c white",
/* pixels */
" ......XX.X...    ......XX...   ",
"...XXXXXXXXXXX.  ..XXXXXXXXXX.  ",
"..XXXXXXXXXXXX. ..XXXXXXXXXXXX. ",
".XXXXXXXXXXXXX. .XXXXXXXXXXXXX. ",
".XXXXXXXXXXXXXX .XXXXXXXXXXXXXX ",
"XXXXXXXXXXXXXXX .XXXXXXXXXXXXX. ",
".XXXXXXXXXXXXX. XXXXXXXXXXXXXX. ",
"XXXXXXXXXXXXXX. XXXXXXXXXXXXXXX ",
"XXXXXXXXXXXXXXXoooXXXXXXXXXXXXX ",
".XXXXXXXXXXXXXoOOOoXXXXXXXXXXX. ",
"XXXXXXXXXXXXXXo+++oXXXXXXXXXXX. ",
"XXXXXXXXXXXXXXo@@@oXXXXXXXXXXXX ",
".XXXXXXXXXXXXXo@@@oXXXXXXXXXXXX ",
".XXXXXXXXXXXXXo@@@oXXXXXXXXXXX. ",
" .XX..XX..XX..o+++o....XX.XX..  ",
"              o+++o             ",
" ..X.. X..    oOOOoXX.XXXXX...  ",
".XXXXX#XXX..X.oOOOoXXXXXXXXXX.  ",
".XXXX#X#XXXXXXoOOOoXXXXXXXXXXX. ",
"XXXXX#XX#XXXXXo$$$oXXXXXXXXXXX. ",
"XXXXX#XXXXXXXXoOOOoXXXXXXXXXXX. ",
"XXXX#XXXXXXXXXo$$$oXXXXXXXXXXX. ",
"XXX#XXXXXXXXXXo$$$oXXXXXXXXXXX. ",
"XXXXXXXXXXXXXXXoooXXXXXXXXXXXX. ",
"XXXXXXXXXXXXXXX XXXXXXXXXXXXXXX ",
".XXXXXXXXXXXXX.  .XXXXXXXXXXXXX ",
".XXXXXXXXXXXXX.  .XXXXXXXXXXXX. ",
" .XXXXXXXXXXXX.  XXXXXXXXXXXXX. ",
" .XXXXXXXXXXX..  XXXXXXXXXXXXX. ",
" .XXXXXXXXXX...  .XXXXXXXXXXXX. ",
"  ....XX......   ..X.X.X..X...  ",
"                                "
};
