/* XPM */
static char *_[] = {
/* columns rows colors chars-per-pixel */
"32 32 10 1 ",
"  c #2E242F",
". c #966C6C",
"X c #694F62",
"o c black",
"O c #FEFEFE",
"+ c #E98710",
"@ c #F9AB0F",
"# c #FECC0F",
"$ c #3E3546",
"% c white",
/* pixels */
" ......XX.X...    ......XX...   ",
"...XXXXXXXXXXX.  ..XXXXXXXXXX.  ",
"..XXXXXXXXXXXX. ..XXXXXXXXXXXX. ",
".XXXXXXXXXXXXX. .XXXXXXXXXXXXX. ",
".XXXXXXXXXXXXXX .XXXXXXXXXXXXXX ",
"XXXXXXXXXXXXXXX .XXXXXXXXXXXXX. ",
".XXXXXXXXXXXXX. XXXXXXXXXXXXXX. ",
"XXXXXXXXXXXXXX. XXXXXXXXXXXXXXX ",
"XXXXXXXXXXXXXXooooXXXXXXXXXXXXX ",
".XXXXXXXXXXXooO+++ooXXXXXXXXXX. ",
"XXXXXXXXXXXoO++@@#++oXXXXXXXXX. ",
"XXXXXXXXXXoO+@@#####+oXXXXXXXXX ",
".XXXXXXXXXoO+@#+++##+oXXXXXXXXX ",
".XXXXXXXXoO+##+@@@+##+oXXXXXXX. ",
" .XX..XX.oO+#+@@@##@#+oXX.XX..  ",
"         oO+#+@@###@#+o         ",
" ..X.. X.oO+#+@####@#+oXXXX...  ",
".XXXXX$XXoO+#+@####@#+oXXXXXX.  ",
".XXXX$X$Xo#+##@###@##+oXXXXXXX. ",
"XXXXX$XX$Xo#+##@@@##+oXXXXXXXX. ",
"XXXXX$XXXXo#+@######+oXXXXXXXX. ",
"XXXX$XXXXXXo#++@@@++oXXXXXXXXX. ",
"XXX$XXXXXXXXoo#+++ooXXXXXXXXXX. ",
"XXXXXXXXXXXXXXooooXXXXXXXXXXXX. ",
"XXXXXXXXXXXXXXX XXXXXXXXXXXXXXX ",
".XXXXXXXXXXXXX.  .XXXXXXXXXXXXX ",
".XXXXXXXXXXXXX.  .XXXXXXXXXXXX. ",
" .XXXXXXXXXXXX.  XXXXXXXXXXXXX. ",
" .XXXXXXXXXXX..  XXXXXXXXXXXXX. ",
" .XXXXXXXXXX...  .XXXXXXXXXXXX. ",
"  ....XX......   ..X.X.X..X...  ",
"                                "
};
