/* XPM */
static char *_[] = {
/* columns rows colors chars-per-pixel */
"32 32 10 1 ",
"  c #2E242F",
". c #966C6C",
"X c #694F62",
"o c black",
"O c #F9AB0F",
"+ c #FEFEFE",
"@ c #FECC0F",
"# c #E98710",
"$ c #3E3546",
"% c white",
/* pixels */
" ......XX.X...    ......XX...   ",
"...XXXXXXXXXXX.  ..XXXXXXXXXX.  ",
"..XXXXXXXXXXXX. ..XXXXXXXXXXXX. ",
".XXXXXXXXXXXXX. .XXXXXXXXXXXXX. ",
".XXXXXXXXXXXXXX .XXXXXXXXXXXXXX ",
"XXXXXXXXXXXXXXX .XXXXXXXXXXXXX. ",
".XXXXXXXXXXXXX. XXXXXXXXXXXXXX. ",
"XXXXXXXXXXXXXX. XXXXXXXXXXXXXXX ",
"XXXXXXXXXXXXXXooooXXXXXXXXXXXXX ",
".XXXXXXXXXXXooOOOOooXXXXXXXXXX. ",
"XXXXXXXXXXXoOO+@@@##oXXXXXXXXX. ",
"XXXXXXXXXXoO++@@@@@@#oXXXXXXXXX ",
".XXXXXXXXoO+@@####@@@#oXXXXXXXX ",
".XXXXXXXXoO+@#OOOO#@@#oXXXXXXX. ",
" .XX..XXoO+@#OOOO@@O@@#oX.XX..  ",
"        oO@@#OOO@@@O@@#o        ",
" ..X.. XoO@@#OO@@@+O@@#oXXX...  ",
".XXXXX$XoO@@#O@@@++O@@#oXXXXX.  ",
".XXXX$X$XoO@@#@@++O@@#oXXXXXXX. ",
"XXXXX$XX$oO@@@OOOO@@@#oXXXXXXX. ",
"XXXXX$XXXXoO@@@@@@@@#oXXXXXXXX. ",
"XXXX$XXXXXXoOO@@@@##oXXXXXXXXX. ",
"XXX$XXXXXXXXooOOOOooXXXXXXXXXX. ",
"XXXXXXXXXXXXXXooooXXXXXXXXXXXX. ",
"XXXXXXXXXXXXXXX XXXXXXXXXXXXXXX ",
".XXXXXXXXXXXXX.  .XXXXXXXXXXXXX ",
".XXXXXXXXXXXXX.  .XXXXXXXXXXXX. ",
" .XXXXXXXXXXXX.  XXXXXXXXXXXXX. ",
" .XXXXXXXXXXX..  XXXXXXXXXXXXX. ",
" .XXXXXXXXXX...  .XXXXXXXXXXXX. ",
"  ....XX......   ..X.X.X..X...  ",
"                                "
};
