/* XPM */
static char *_[] = {
/* columns rows colors chars-per-pixel */
"32 32 10 1 ",
"  c #2E242F",
". c #966C6C",
"X c #694F62",
"o c black",
"O c #F9AB0F",
"+ c #E98710",
"@ c #FECC0F",
"# c #FEFEFE",
"$ c #3E3546",
"% c white",
/* pixels */
" ......XX.X...    ......XX...   ",
"...XXXXXXXXXXX.  ..XXXXXXXXXX.  ",
"..XXXXXXXXXXXX. ..XXXXXXXXXXXX. ",
".XXXXXXXXXXXXX. .XXXXXXXXXXXXX. ",
".XXXXXXXXXXXXXX .XXXXXXXXXXXXXX ",
"XXXXXXXXXXXXXXX .XXXXXXXXXXXXX. ",
".XXXXXXXXXXXXX. XXXXXXXXXXXXXX. ",
"XXXXXXXXXXXXXX. XXXXXXXXXXXXXXX ",
"XXXXXXXXXXXXXXooooXXXXXXXXXXXXX ",
".XXXXXXXXXXXooOOO+ooXXXXXXXXXX. ",
"XXXXXXXXXXXoOO@@@##+oXXXXXXXXX. ",
"XXXXXXXXXXoO@@@@####+oXXXXXXXXX ",
".XXXXXXXXXoO@@OOO##@+oXXXXXXXXX ",
".XXXXXXXXoO@@O###O@@O+oXXXXXXX. ",
" .XX..XX.oO@O####@O@O+oXX.XX..  ",
"         oO@O###@@O@O+o         ",
" ..X.. X.oO#O##@@@O@O+oXXXX...  ",
".XXXXX$XXo##O#@@@@O@O+oXXXXXX.  ",
".XXXX$X$Xo###O@@@O@@O+oXXXXXXX. ",
"XXXXX$XX$Xo#@@OOO@@O+oXXXXXXXX. ",
"XXXXX$XXXXo+@@@@@@@O+oXXXXXXXX. ",
"XXXX$XXXXXXo++@@@OO+oXXXXXXXXX. ",
"XXX$XXXXXXXXooOOO+ooXXXXXXXXXX. ",
"XXXXXXXXXXXXXXooooXXXXXXXXXXXX. ",
"XXXXXXXXXXXXXXX XXXXXXXXXXXXXXX ",
".XXXXXXXXXXXXX.  .XXXXXXXXXXXXX ",
".XXXXXXXXXXXXX.  .XXXXXXXXXXXX. ",
" .XXXXXXXXXXXX.  XXXXXXXXXXXXX. ",
" .XXXXXXXXXXX..  XXXXXXXXXXXXX. ",
" .XXXXXXXXXX...  .XXXXXXXXXXXX. ",
"  ....XX......   ..X.X.X..X...  ",
"                                "
};
